<svg width="349" height="31" viewBox="0 0 349 31" fill="none" xmlns="http://www.w3.org/2000/svg">
<g clip-path="url(#clip0_4_8)">
<path fill-rule="evenodd" clip-rule="evenodd" d="M29.5419 5.52248C31.189 5.52248 32.2403 5.35366 33.2215 6.9406C34.0626 8.32496 34.5181 14.6727 34.6583 16.4623L34.9387 23.4854C34.9387 24.7009 35.7447 24.6334 37.3216 24.8022C39.5995 25.0723 43.9098 25.0723 46.0475 24.5658C46.6082 24.4645 46.8535 24.2282 46.8535 23.5529C46.8885 22.4049 46.9236 21.2569 46.9586 20.0076C46.9586 19.5686 47.0287 19.5686 47.0638 19.1972C47.0638 18.8934 47.0287 18.5557 47.0287 18.2856L47.1689 16.5636C47.4142 14.3689 47.6595 8.83143 48.6057 7.00813C49.4467 5.35366 50.8134 5.52248 52.2502 5.52248C54.2477 5.52248 61.677 5.8939 63.1839 6.4679C65.3916 7.31202 64.8309 9.27038 64.4805 10.9249C64.3403 11.6677 64.1651 12.3092 63.9899 12.9845C63.324 15.4156 62.0625 18.1168 60.8009 20.2102C58.5931 23.7555 55.4743 25.4437 50.8835 26.1528C45.5569 26.9969 39.3191 27.0644 34.0275 26.558C27.4043 25.8827 23.199 24.6671 20.1502 18.6908C19.134 16.7324 16.3655 10.047 17.1715 7.81849C17.4869 6.9406 18.3279 6.50166 19.2741 6.26531C20.1853 6.02895 23.164 5.82637 24.2503 5.7926C24.6709 5.75884 24.6709 5.72507 25.1264 5.69131C25.4769 5.69131 25.6871 5.72507 26.0025 5.65754L29.5419 5.52248ZM34.4831 0.0525818H35.99C36.6558 0.0863466 37.3216 0.153876 37.9524 0.45776C39.4593 1.13306 40.5106 2.68624 40.5106 4.34071V21.8309H41.2816C41.2816 17.4752 41.2816 13.1533 41.2816 8.79767C41.2816 6.77178 40.9662 4.10436 41.7021 2.61871C42.438 1.09929 43.8748 0.0525818 45.7321 0.0525818H49.1664C49.3066 0.0525818 49.4117 0.0525818 49.4818 0.0863466C50.2527 0.187641 51.1989 0.0863466 52.04 0.153876C52.7759 0.221406 53.8272 0.255171 54.5281 0.3227C55.4042 0.39023 56.1751 0.356465 57.0512 0.423995C62.7984 0.862937 70.5781 1.20059 76.2201 2.55118C77.4466 2.85506 79.0586 3.42906 80.0048 4.00307C81.0912 4.71213 81.8271 5.72507 81.8271 7.34578C81.8271 10.7223 79.8997 16.7999 78.2176 19.5011C77.0261 21.4257 76.115 22.2698 74.1175 23.4178C72.4354 24.3633 70.4029 25.2411 68.5455 25.8827L62.483 27.841C55.5093 29.9344 47.7646 30.9474 40.4405 30.9474C35.99 30.9474 31.9249 30.4409 28.1402 29.8332C26.2829 29.563 24.3905 29.1241 22.6033 28.6851C20.8161 28.28 19.134 27.8073 17.4519 27.267C13.3868 25.984 6.79858 23.9581 4.31048 20.5478C3.39934 19.2985 2.66343 17.9479 2.06768 16.3272C1.33177 14.2676 -0.735809 8.2912 0.280458 5.72507C0.911244 4.17189 2.5583 3.56412 4.13526 2.99012C6.13275 2.24729 11.4944 1.4707 14.0526 1.23435C14.5783 1.20059 14.9988 1.20059 15.5245 1.13306C17.0313 0.930467 19.0288 0.930467 20.2554 0.727878L28.035 0.221406C30.1727 0.120111 32.2753 0.0525818 34.4831 0.0525818V0.0525818Z" fill="#1E67BB"/>
<path fill-rule="evenodd" clip-rule="evenodd" d="M183.594 14.5714C183.594 10.9586 187.449 7.75095 191.549 9.57425C192.215 9.84437 192.6 10.2495 193.091 10.7223C196.315 13.7949 194.633 20.1426 188.956 20.1426C185.977 20.1426 183.594 17.3064 183.594 14.5714ZM212.084 20.2777C211.383 20.2777 210.262 19.9401 209.771 19.7375C204.55 17.4077 205.776 9.03401 212.225 9.03401C216.92 9.03401 219.549 15.0779 216.044 18.5219C215.413 19.0959 215.203 19.3323 214.397 19.7037C213.837 19.9738 212.89 20.2777 212.084 20.2777ZM177.426 13.2546C177.426 12.5793 177.426 13.052 177.566 12.8832C177.566 13.5585 177.566 13.052 177.426 13.2546ZM179.073 9.70931C179.178 9.2366 179.494 8.62884 179.704 8.18989C180.019 7.64966 180.195 7.14318 180.44 6.67048H174.553L170.172 16.2935C169.822 16.0571 169.681 15.6182 169.506 15.213C169.296 14.7403 169.121 14.4701 168.946 14.065L167.228 10.3846C167.053 9.64178 168.595 7.58213 168.665 6.67048H160.85C160.991 7.27824 162.147 9.3379 162.498 9.84437L158.993 16.4623L154.963 6.67048H132.64V22.2361L125.106 6.67048H115.504C115.469 7.31201 114.873 8.05483 114.593 8.69637C114.277 9.47296 113.997 9.9119 113.682 10.6885L109.862 18.6232C109.406 19.5349 108.145 21.9322 107.97 22.6412H114.137C114.698 21.5945 115.154 20.5141 115.749 19.4336C116.31 18.3193 116.801 17.3739 117.396 16.2597C117.747 15.5169 120.305 10.2495 120.725 9.97943C120.761 10.5872 124.3 17.644 124.545 18.6908H116.73C116.801 19.2648 117.501 20.2102 117.817 20.6829L118.938 22.6412H145.361C146.798 22.6412 148.41 22.7088 149.777 22.6412C150.723 22.6075 150.443 22.1685 150.443 21.1894C150.443 20.4465 150.443 19.7037 150.443 18.9271H139.193V16.2935H149.216C149.216 15.8883 149.251 13.1871 149.181 13.0183C149.006 12.5118 147.183 12.7481 146.062 12.7481C143.784 12.7481 141.506 12.7481 139.193 12.7481V10.1145H150.723L156.19 22.6412H160.85C161.551 21.6283 162.112 20.3115 162.778 19.1972C163.128 18.6232 164.565 16.1584 164.705 15.6519C165.161 15.9896 167.964 21.6283 168.665 22.6412H172.906L174.027 20.2777C174.377 19.5011 174.798 18.7245 175.148 17.9142C175.534 17.07 175.849 16.3947 176.235 15.5506L177.216 13.5585C177.356 13.3221 177.286 13.4572 177.426 13.2546C177.426 15.8883 177.426 17.1038 179.003 19.1297C179.424 19.6699 179.809 19.9738 180.265 20.4128C185.802 25.8151 198.382 24.0256 200.31 16.0233L200.415 16.2259C200.87 17.3739 201.011 18.083 201.922 19.231C203.429 21.0205 205.601 22.4386 207.984 23.0464C213.451 24.397 219.444 22.8438 222.247 18.4206C224.525 14.774 223.193 10.6547 220.004 8.15613C218.147 6.67048 215.729 5.72506 212.645 5.48871C207.809 5.11729 202.237 7.54836 200.52 12.5456L200.31 13.0183C198.698 6.2653 189.621 4.03682 183.979 6.36659C180.195 7.91978 179.879 9.13531 179.073 9.70931Z" fill="#1E67BA"/>
<path fill-rule="evenodd" clip-rule="evenodd" d="M247.163 6.70424C246.988 7.17695 246.953 9.67554 247.093 10.1483L247.198 10.4184L247.268 22.6412H252.91V10.2833C253.997 10.2833 260.41 10.1145 261.145 10.4521C262.442 11.0599 263.108 12.6806 261.952 13.9637C261.461 14.5039 260.97 14.8078 259.919 14.8078C257.992 14.8078 256.064 14.8078 254.137 14.8078L258.833 20.6153C259.113 20.953 259.323 21.2569 259.604 21.5945C259.884 21.8984 260.234 22.2361 260.34 22.6412H267.208L265.386 20.4128C265.07 20.0076 264.825 19.6699 264.51 19.2648C264.159 18.8596 263.914 18.5895 263.634 18.1167C265.211 17.7791 266.752 16.6986 267.523 15.4831C267.699 15.2467 267.804 15.0441 267.909 14.8078C267.979 14.639 268.014 14.639 268.084 14.4364L268.329 13.9974C268.329 18.4206 268.47 21.2569 272.92 22.9789C274.217 23.4516 275.268 23.5529 276.985 23.5529C280.314 23.5529 282.067 23.9243 285.08 22.3036C287.008 21.2906 288.304 19.231 288.304 16.3947C288.62 16.8675 288.795 18.9271 291.493 21.1218C295.699 24.5658 303.093 24.6671 307.193 21.7296C307.648 21.4257 307.999 21.2231 308.349 20.8855C308.56 20.6829 308.665 20.5816 308.84 20.4128C309.26 20.0076 309.225 20.0413 309.225 19.8388L309.436 19.5686C308.7 19.1297 307.894 18.792 307.123 18.4206C306.667 18.218 306.317 18.0492 305.896 17.8466C305.406 17.6103 305.301 17.3739 304.67 17.3064C304.249 19.0622 301.271 20.7842 298.432 20.1426C293.105 18.9609 292.545 11.0261 298.187 9.33789C301.235 8.42624 304.249 10.4521 304.67 12.0053C305.266 11.9716 305.511 11.7014 305.931 11.4988L309.366 9.60801C306.001 4.77964 294.367 3.49658 289.636 10.2495C288.795 11.4651 288.865 11.5664 288.445 12.7144L288.339 12.9845C288.339 13.0183 288.304 13.052 288.304 13.0858V7.10942H281.961C281.961 9.84437 281.961 12.5793 281.961 15.3143C281.961 19.2648 282.172 19.9738 278.107 19.9738C274.252 19.9738 274.252 19.1297 274.252 15.4493C274.252 12.6806 274.252 9.87813 274.252 7.10942H268.329V11.0937C267.874 10.4521 267.558 8.86519 265.526 7.68342C263.774 6.67047 262.722 6.70424 260.059 6.70424C255.749 6.70424 251.473 6.70424 247.163 6.70424Z" fill="#1D68BA"/>
<path fill-rule="evenodd" clip-rule="evenodd" d="M98.9283 18.8258H95.2487V10.2158C97.7719 10.2158 100.47 9.97944 102.643 11.1612C106.042 13.0183 105.131 18.8258 98.9283 18.8258ZM89.3263 22.5062H101.802C106.287 22.5062 110.563 19.2648 110.563 14.7065V13.9299C110.563 11.904 108.741 9.37168 107.479 8.46003C105.692 7.1432 103.764 6.53543 100.716 6.53543H89.3263V22.5062Z" fill="#1E67BA"/>
<path fill-rule="evenodd" clip-rule="evenodd" d="M328.78 10.6885C328.78 12.3767 329.165 13.6598 330.567 14.6728C331.618 15.4156 332.74 16.0233 334.317 16.2259C336.349 16.4961 340.449 16.0233 341.921 16.4623C342.131 16.4961 342.657 16.8337 342.762 16.9688C343.148 17.3739 343.743 20.1089 341.15 20.1089C339.398 20.1089 336.174 20.379 335.228 19.7037C334.562 19.2648 334.702 18.5219 334.702 17.5765H328.78C328.78 19.8725 328.99 20.953 331.198 22.4049C333.721 24.0931 337.926 23.688 341.29 23.688C350.787 23.688 351.383 14.4702 343.708 12.9845C339.959 12.2754 334.562 13.8286 334.562 11.4651C334.562 10.2158 334.527 9.23661 337.155 9.23661C338.382 9.23661 342.937 8.89897 342.937 10.2833V11.2287H348.615C349.911 11.2287 348.194 5.7926 342.272 5.7926H335.508C332.354 5.7926 328.78 7.75096 328.78 10.6885Z" fill="#1E67BA"/>
<path fill-rule="evenodd" clip-rule="evenodd" d="M309.436 19.5687L309.225 19.8388C309.541 20.1089 309.401 19.8725 309.506 20.379C309.506 20.4128 309.506 21.0543 309.506 21.1556C309.471 21.6958 309.506 22.2361 309.506 22.7425H315.428V14.5377L323.348 22.2698C323.733 22.6412 323.663 22.7425 324.364 22.7763C326.187 22.8776 328.394 22.7425 330.287 22.7425C330.146 22.2361 329.726 21.9997 329.34 21.6621L324.259 16.6311C323.663 16.0571 322.577 15.1117 322.157 14.5377L330.707 6.70425C328.815 6.70425 326.922 6.73802 325.065 6.70425C323.523 6.70425 323.839 6.73802 323.033 7.54837L319.984 10.182C319.739 10.4184 319.563 10.621 319.318 10.8573L316.97 12.8495C316.444 13.2546 316.094 13.9637 315.428 14.1325V6.70425H309.506L309.436 19.5687Z" fill="#1E67BA"/>
<path fill-rule="evenodd" clip-rule="evenodd" d="M247.198 10.4184L247.093 10.1483C246.953 9.67556 246.988 7.17696 247.163 6.70425H225.786H225.646V10.4184H233.356V22.7425H239.839V10.4184H247.198Z" fill="#1E67BB"/>
</g>
<defs>
<clipPath id="clip0_4_8">
<rect width="349" height="31" fill="white"/>
</clipPath>
</defs>
</svg>
