<?xml version="1.0" encoding="utf-8"?>
<!-- Generator: Adobe Illustrator 23.0.1, SVG Export Plug-In . SVG Version: 6.00 Build 0)  -->
<svg version="1.1" id="Слой_1" xmlns="http://www.w3.org/2000/svg" xmlns:xlink="http://www.w3.org/1999/xlink" x="0px" y="0px"
	 viewBox="0 0 26 26" style="enable-background:new 0 0 26 26;" xml:space="preserve">
<style type="text/css">
	.st0{fill:#1A171B;}
</style>
<g>
	<path class="st0" d="M13,3c4.41,0,8,3.32,8,7.39c0,4.68-5.03,9.71-8,12.1c-2.97-2.39-8-7.42-8-12.1C5,6.32,8.59,3,13,3 M13,1
		C7.48,1,3,5.2,3,10.39C3,18,13,25,13,25s10-7,10-14.61C23,5.2,18.52,1,13,1L13,1z"/>
</g>
<g>
	<path class="st0" d="M13,9c1.1,0,2,0.9,2,2s-0.9,2-2,2s-2-0.9-2-2S11.9,9,13,9 M13,7c-2.21,0-4,1.79-4,4s1.79,4,4,4s4-1.79,4-4
		S15.21,7,13,7L13,7z"/>
</g>
</svg>
