<?xml version="1.0" encoding="utf-8"?>
<!-- Generator: Adobe Illustrator 23.0.5, SVG Export Plug-In . SVG Version: 6.00 Build 0)  -->
<svg version="1.1" id="Слой_1" xmlns="http://www.w3.org/2000/svg" xmlns:xlink="http://www.w3.org/1999/xlink" x="0px" y="0px"
	 viewBox="0 0 967.5 800" style="enable-background:new 0 0 967.5 800;" xml:space="preserve">
<style type="text/css">
	.st0{fill:#FFFFFF;}
</style>
<path class="st0" d="M59.3,348.4l576.3-237.5C692.5,86.2,885.5,7.1,885.5,7.1s89-34.6,81.6,49.5c-2.5,34.6-22.3,155.8-42,286.9
	l-61.8,388.3c0,0-4.9,56.9-47,66.8c-42,9.9-111.3-34.6-123.7-44.5c-9.9-7.4-185.5-118.7-249.8-173.1c-17.3-14.8-37.1-44.5,2.5-79.2
	c89-81.6,195.4-183,259.7-247.3c29.7-29.7,59.4-98.9-64.3-14.8l-348.8,235c0,0-39.6,24.7-113.8,2.5
	c-74.2-22.3-160.8-51.9-160.8-51.9S-42.1,388,59.3,348.4L59.3,348.4z"/>
</svg>
